<?xml version="1.0" encoding="utf-8"?>
<svg width="649" height="948" viewBox="-25 -404 649 948" xmlns="http://www.w3.org/2000/svg">
  <path d="M 258.004 500.959 C 258.004 500.959 251.824 523.702 289.937 522.365 C 328.05 521.026 320.839 502.298 320.839 501.627 C 320.839 500.958 320.839 385.236 320.839 384.568 C 320.839 383.899 260.064 385.236 260.064 385.236 C 260.064 385.236 258.004 498.283 258.004 500.959 Z" style="stroke-width: 20; stroke: rgb(140, 94, 65); fill: rgb(84, 56, 39);"/>
  <path d="M 123.282 333.733 C 123.282 333.733 95.982 333.5 95.382 362.654 C 94.782 391.808 121.167 414.278 121.167 414.278 C 121.167 414.278 150.551 394.843 150.55 364.476 C 150.548 334.108 124.765 333.5 123.282 333.733 Z" style="fill: rgb(99, 40, 16); stroke: rgb(142, 61, 29); stroke-width: 16;"/>
  <path d="M 451.307 367.422 C 451.307 367.422 424.007 367.189 423.407 396.343 C 422.807 425.497 449.192 447.967 449.192 447.967 C 449.192 447.967 478.576 428.532 478.575 398.165 C 478.573 367.797 452.79 367.189 451.307 367.422 Z" style="fill: rgb(99, 40, 16); stroke: rgb(142, 61, 29); stroke-width: 16;"/>
  <path d="M 295.001 42.867 C 295.001 42.867 254.204 136.667 166.487 199.801 C 78.77 262.935 3.293 274.662 3.293 274.662 C 3.293 274.662 -2.826 416.261 293.983 413.555 C 590.791 410.85 589.771 289.091 589.771 289.091 C 589.771 289.091 489.815 262.035 420.458 201.603 C 351.1 141.174 299.083 47.377 295.001 42.867 Z" style="stroke: rgb(0, 173, 95); stroke-width: 20; fill: rgb(0, 103, 57);"/>
  <path d="M 178.869 210.294 C 178.869 210.294 151.569 210.061 150.969 239.215 C 150.369 268.369 176.754 290.839 176.754 290.839 C 176.754 290.839 206.138 271.404 206.137 241.037 C 206.135 210.669 180.352 210.061 178.869 210.294 Z" style="fill: rgb(99, 40, 16); stroke: rgb(142, 61, 29); stroke-width: 16;"/>
  <path d="M 417.666 204.625 C 417.666 204.625 390.366 204.392 389.766 233.546 C 389.166 262.7 415.551 285.17 415.551 285.17 C 415.551 285.17 444.934 265.735 444.933 235.367 C 444.932 205 419.149 204.392 417.666 204.625 Z" style="fill: rgb(99, 40, 16); stroke: rgb(142, 61, 29); stroke-width: 16;"/>
  <path d="M 288.503 -99.814 C 288.503 -99.814 256.883 -18.744 188.897 35.822 C 120.913 90.388 62.414 100.523 62.414 100.523 C 62.414 100.523 57.671 222.906 287.714 220.567 C 517.755 218.228 516.965 112.995 516.965 112.995 C 516.965 112.995 439.494 89.609 385.739 37.38 C 331.983 -14.848 291.666 -95.917 288.503 -99.814 Z" style="stroke: rgb(0, 173, 95); stroke-width: 20; fill: rgb(0, 103, 57);"/>
  <path d="M 354.792 42.249 C 354.792 42.249 327.492 42.017 326.892 71.171 C 326.293 100.324 352.677 122.795 352.677 122.795 C 352.677 122.795 382.061 103.36 382.06 72.992 C 382.059 42.624 356.275 42.017 354.792 42.249 Z" style="fill: rgb(99, 40, 16); stroke: rgb(142, 61, 29); stroke-width: 16;"/>
  <path d="M 131.725 0.716 C 131.725 0.716 104.425 0.484 103.825 29.638 C 103.225 58.792 129.609 81.262 129.609 81.262 C 129.609 81.262 158.993 61.827 158.992 31.459 C 158.991 1.092 133.208 0.484 131.725 0.716 Z" style="fill: rgb(99, 40, 16); stroke: rgb(142, 61, 29); stroke-width: 16;"/>
  <path d="M 452.178 -9.841 C 452.178 -9.841 424.878 -10.073 424.279 19.08 C 423.679 48.234 450.063 70.705 450.063 70.705 C 450.063 70.705 479.447 51.27 479.446 20.902 C 479.445 -9.466 453.661 -10.073 452.178 -9.841 Z" style="fill: rgb(99, 40, 16); stroke: rgb(142, 61, 29); stroke-width: 16;"/>
  <path d="M 292.397 -243.208 C 292.397 -243.208 266.433 -170.671 210.609 -121.847 C 154.788 -73.026 106.755 -63.958 106.755 -63.958 C 106.755 -63.958 102.861 45.545 291.748 43.452 C 480.634 41.358 479.986 -52.799 479.986 -52.799 C 479.986 -52.799 416.374 -73.723 372.236 -120.454 C 328.097 -167.185 294.993 -239.72 292.397 -243.208 Z" style="stroke: rgb(0, 173, 95); stroke-width: 20; fill: rgb(0, 103, 57);"/>
  <path d="M 268.104 -122.151 C 268.104 -122.151 240.804 -122.383 240.204 -93.229 C 239.605 -64.075 265.989 -41.605 265.989 -41.605 C 265.989 -41.605 295.373 -61.04 295.372 -91.408 C 295.371 -121.775 269.587 -122.383 268.104 -122.151 Z" style="fill: rgb(99, 40, 16); stroke: rgb(142, 61, 29); stroke-width: 16;"/>
  <path d="M 293.11 -371.608 C 293.11 -371.608 274.256 -305.586 233.716 -261.15 C 193.179 -216.714 158.297 -208.461 158.297 -208.461 C 158.297 -208.461 155.468 -108.797 292.639 -110.702 C 429.81 -112.606 429.339 -198.303 429.339 -198.303 C 429.339 -198.303 383.144 -217.348 351.091 -259.882 C 319.037 -302.414 294.997 -368.434 293.11 -371.608 Z" style="stroke: rgb(0, 173, 95); stroke-width: 20; fill: rgb(0, 103, 57);"/>
</svg>